<svg width="45" height="40" viewBox="0 0 45 40" fill="none" xmlns="http://www.w3.org/2000/svg">
<path d="M40.9708 20.1926C42.0788 18.9634 42.9237 17.5206 43.4535 15.9529C43.8927 14.657 44.1163 13.2979 44.1156 11.9297C44.1305 8.80884 42.9559 5.79956 40.8308 3.51398C39.8187 2.41087 38.5892 1.52918 37.2197 0.924421C35.8503 0.319664 34.3705 0.00492054 32.8734 0C30.6642 0.037482 28.5147 0.723699 26.6924 1.97327C24.8701 3.22285 23.4554 4.98062 22.6243 7.02794C22.5852 7.14029 22.5121 7.23768 22.4152 7.3066C22.3182 7.37552 22.2022 7.41256 22.0833 7.41256C21.9643 7.41256 21.8483 7.37552 21.7513 7.3066C21.6544 7.23768 21.5813 7.14029 21.5422 7.02794C20.7111 4.98062 19.2964 3.22285 17.4741 1.97327C15.6518 0.723699 13.5023 0.037482 11.2931 0C9.79603 0.00492054 8.31623 0.319664 6.94676 0.924421C5.57729 1.52918 4.34781 2.41087 3.33572 3.51398C1.18988 5.79028 -0.00362569 8.80139 8.27415e-06 11.9297C-0.000872953 13.2709 0.21407 14.6036 0.636597 15.8765C1.08944 17.2631 1.78808 18.5569 2.69914 19.696C3.09493 20.1481 3.52026 20.5734 3.97231 20.9692L21.453 39.4685C21.5364 39.557 21.6371 39.6275 21.7487 39.6757C21.8604 39.7239 21.9807 39.7487 22.1023 39.7486C22.222 39.7484 22.3404 39.7235 22.45 39.6753C22.5596 39.627 22.6579 39.5566 22.7389 39.4685L27.8316 34.0702C28.1484 34.5541 28.5062 35.0099 28.9011 35.4325C29.7476 36.3423 30.7721 37.0683 31.9111 37.5655C33.05 38.0627 34.2789 38.3204 35.5216 38.3226H35.6489C38.2214 38.2199 40.6485 37.1028 42.3996 35.2156C44.1508 33.3285 45.0836 30.8247 44.9941 28.2518C44.9912 25.5344 43.9106 22.9291 41.9894 21.0074C41.6651 20.7173 41.325 20.4453 40.9708 20.1926ZM22.1151 37.6096L5.33462 19.7852L5.23275 19.6833C4.84742 19.3339 4.48986 18.9551 4.16328 18.5502C2.65505 16.665 1.84136 14.3184 1.85884 11.9042C1.84235 9.2334 2.84395 6.65661 4.65984 4.69802C5.50705 3.77098 6.53739 3.02981 7.68573 2.52139C8.83407 2.01296 10.0754 1.74835 11.3313 1.74426C13.1958 1.78172 15.0082 2.36652 16.543 3.42594C18.0778 4.48535 19.2672 5.97261 19.9634 7.70272C20.1332 8.13686 20.43 8.5097 20.815 8.77253C21.2 9.03537 21.6553 9.17598 22.1214 9.17598C22.5876 9.17598 23.0429 9.03537 23.4279 8.77253C23.8129 8.5097 24.1097 8.13686 24.2795 7.70272C24.9757 5.97261 26.1651 4.48535 27.6999 3.42594C29.2347 2.36652 31.0471 1.78172 32.9116 1.74426C34.1676 1.74758 35.4092 2.01185 36.5576 2.52032C37.7061 3.0288 38.7363 3.77037 39.5831 4.69802C41.3989 6.65661 42.4005 9.2334 42.384 11.9042C42.3855 13.0812 42.1964 14.2507 41.8239 15.3672C41.35 16.7527 40.591 18.0235 39.5958 19.0976V19.1613L39.5194 19.2377C38.2873 18.6468 36.939 18.338 35.5726 18.3338C33.0013 18.4332 30.5741 19.5475 28.8226 21.4327C27.0711 23.3178 26.138 25.8202 26.2274 28.3918C26.232 29.7842 26.5179 31.1613 27.0678 32.4405L22.1151 37.6096ZM35.598 37.1767C34.505 37.1768 33.4237 36.9507 32.4224 36.5124C31.421 36.0742 30.5212 35.4334 29.7796 34.6304C28.1906 32.9472 27.3067 30.7193 27.3097 28.4046C27.2198 26.1409 28.0287 23.9336 29.5599 22.264C31.0912 20.5944 33.2205 19.5981 35.4834 19.4923C36.5307 19.4898 37.5682 19.6943 38.5361 20.0942C39.5041 20.494 40.3834 21.0813 41.1236 21.8222C42.8001 23.5205 43.7538 25.802 43.7846 28.1881C43.8954 30.4584 43.101 32.6798 41.5757 34.365C40.0505 36.0502 37.919 37.0614 35.6489 37.1767H35.598Z" fill="white"/>
<path d="M38.017 21.1221H33.1026V25.8074H28.761V30.9001H33.1026V35.5344H38.0425V30.9001H42.384V25.8074H38.0425L38.017 21.1221ZM39.3539 26.9405H41.1872V29.7669H36.833V34.4013H34.2866V29.7669H29.9451V26.9405H34.2866V22.3061H36.833V26.9405H39.3539Z" fill="white"/>
</svg>
