<svg width="50" height="51" viewBox="0 0 50 51" fill="none" xmlns="http://www.w3.org/2000/svg">
<path d="M21.65 9.26722C15.3345 -2.25347 0.813595 0.213005 0.66897 0.238471C0.661192 0.239699 0.655051 0.244202 0.647273 0.246249C0.621483 0.251571 0.598967 0.263853 0.574405 0.27204C0.522005 0.290871 0.470833 0.31134 0.42498 0.340405C0.400827 0.35637 0.380359 0.375202 0.358252 0.394033C0.315267 0.430468 0.278015 0.470177 0.244858 0.516031C0.235442 0.529541 0.220705 0.537318 0.212108 0.552056C0.205558 0.5627 0.205558 0.575391 0.199827 0.586035C0.17199 0.636388 0.153976 0.690425 0.140466 0.747742C0.133916 0.773532 0.124092 0.798505 0.120407 0.824705C0.119179 0.832483 0.115904 0.838623 0.114676 0.846811C0.0553157 1.5407 -1.24773 17.9198 6.66553 25.3879C9.18608 27.7663 12.362 28.9638 16.1344 28.9638C16.8373 28.9638 17.5677 28.9085 18.3119 28.8254C19.0696 33.5397 18.8212 36.8188 18.8138 36.9049C18.7814 37.2774 19.057 37.6057 19.4295 37.6381C19.4495 37.6397 19.4692 37.6409 19.4888 37.6409C19.8364 37.6409 20.1316 37.3752 20.1619 37.0228C20.17 36.9319 20.437 33.3937 19.5973 28.3522C20.9642 26.9796 27.3759 19.7111 21.6504 9.26707L21.65 9.26722ZM7.59627 24.4056C1.31108 18.4771 1.25826 5.95344 1.40163 2.11041C5.17119 4.56955 8.13788 7.4 10.4607 10.3699C7.57049 9.49264 5.76918 10.2303 5.67507 10.27C5.3312 10.4174 5.17195 10.8145 5.31933 11.1584C5.46671 11.5023 5.86584 11.6607 6.20727 11.5133C6.29487 11.4781 8.46666 10.6389 11.9782 12.4528C13.6902 14.9906 14.9789 17.5799 15.9496 20.0828C14.2208 19.1531 11.2974 18.2688 7.15822 19.2968C6.79552 19.3873 6.57487 19.7541 6.66452 20.1168C6.75499 20.4795 7.12302 20.6965 7.4845 20.6105C13.1506 19.2019 16.1657 21.7281 16.7348 22.2721C17.33 24.1057 17.7607 25.8628 18.0723 27.4855C13.789 27.9448 10.263 26.9214 7.59632 24.4057L7.59627 24.4056ZM19.2909 26.7091C18.9728 25.1515 18.6535 23.8083 18.0878 22.0762C18.0821 22.0508 17.9798 21.7057 17.9712 21.6808C17.9052 21.5006 16.3811 17.1776 19.7306 13.519C19.9828 13.2431 19.9636 12.8153 19.6885 12.5631C19.4134 12.3101 18.9848 12.3302 18.7326 12.6053C17.2449 14.2305 16.5863 15.9651 16.3419 17.506C15.5551 15.7628 13.4672 12.2504 13.4672 12.2504L13.0869 11.6126C13.0869 11.6126 13.0664 11.5799 13.0546 11.5635C11.4969 9.42905 13.6301 7.03175 13.8287 6.82089C14.0559 6.67434 14.1816 6.39759 14.1234 6.11718C14.0489 5.7516 13.6928 5.51335 13.3247 5.59031C12.793 5.6988 11.8887 7.01822 11.4944 8.03719C11.3511 8.40685 11.2615 8.77038 11.2029 9.12942C8.97918 6.36406 6.21633 3.72194 2.77102 1.38562C6.71581 1.16947 15.9235 1.63779 20.4634 9.91867C25.1601 18.4861 21.1643 24.5498 19.2909 26.7087L19.2909 26.7091Z" fill="white"/>
<path d="M30.403 41.5005C29.5634 46.5419 29.8303 50.0802 29.8385 50.171C29.8692 50.5231 30.1648 50.7892 30.5115 50.7892C30.5308 50.7892 30.5508 50.7888 30.5709 50.7863C30.9434 50.754 31.2189 50.426 31.1866 50.0531C31.1788 49.9667 30.9307 46.6881 31.6885 41.9736C32.4327 42.0571 33.1626 42.112 33.8659 42.112C37.6383 42.112 40.8147 40.9146 43.3349 38.5361C51.2477 31.0678 49.945 14.6888 49.8849 13.995C49.8845 13.9873 49.8804 13.9811 49.8791 13.9729C49.8763 13.9463 49.8656 13.9218 49.8591 13.8956C49.8452 13.8387 49.8276 13.7842 49.7997 13.7335C49.794 13.7224 49.794 13.7101 49.7874 13.6995C49.7784 13.6847 49.7641 13.6774 49.7547 13.6639C49.7219 13.618 49.6843 13.5783 49.6413 13.5419C49.6192 13.523 49.5983 13.5042 49.5746 13.4891C49.5287 13.4592 49.4775 13.4387 49.4247 13.4203C49.4002 13.4121 49.3773 13.3998 49.3519 13.3945C49.3441 13.3928 49.3384 13.3879 49.3302 13.3867C49.1865 13.3609 34.6655 10.8953 28.3491 22.4155C22.6236 32.8586 29.0357 40.1277 30.403 41.5006L30.403 41.5005ZM31.9263 40.635C32.2379 39.0123 32.6689 37.2557 33.2638 35.4217C33.8332 34.8776 36.8474 32.3517 42.5141 33.7601C42.8756 33.8456 43.2436 33.6291 43.3341 33.2663C43.4237 32.9036 43.2031 32.5368 42.8404 32.4464C38.7012 31.4176 35.7778 32.3027 34.049 33.2324C35.0196 30.7294 36.3084 28.1401 38.0204 25.6024C41.5316 23.7884 43.7034 24.6277 43.7913 24.6629C44.1327 24.8094 44.5319 24.651 44.6793 24.3079C44.8266 23.9641 44.6674 23.5666 44.3235 23.4196C44.2302 23.3791 42.4289 22.6418 39.5379 23.5195C41.8607 20.5494 44.8271 17.7186 48.597 15.26C48.7402 19.1028 48.6874 31.6266 42.403 37.5552C39.736 40.0695 36.21 41.0926 31.9263 40.6354L31.9263 40.635ZM29.5359 23.0663C34.0755 14.7854 43.2836 14.3176 47.2283 14.5337C43.7839 16.8696 41.021 19.5121 38.7964 22.2775C38.7383 21.9189 38.6478 21.555 38.5049 21.1853C38.1107 20.1663 37.2059 18.8473 36.6746 18.7384C36.3066 18.6614 35.9504 18.8997 35.8759 19.2653C35.8178 19.5465 35.9434 19.822 36.1707 19.969C36.3692 20.1798 38.5025 22.5763 36.9448 24.7116C36.9329 24.7276 36.9124 24.7607 36.9124 24.7607L36.5321 25.3985C36.5321 25.3985 34.4447 28.911 33.6575 30.6541C33.4127 29.1136 32.7544 27.3786 31.2668 25.7534C31.0138 25.4783 30.586 25.4582 30.3109 25.7112C30.0349 25.9634 30.0161 26.3916 30.2687 26.6671C33.6182 30.3257 32.0937 34.6487 32.0282 34.8289C32.0188 34.8534 31.9172 35.1993 31.9115 35.2243C31.3453 36.9563 31.0264 38.2996 30.7084 39.8572C28.8351 37.6978 24.8387 31.6336 29.5356 23.0661L29.5359 23.0663Z" fill="white"/>
</svg>
