<svg width="46" height="46" viewBox="0 0 46 46" fill="none" xmlns="http://www.w3.org/2000/svg">
<path d="M23.1318 45.25C21.8118 45.25 20.2218 44.81 19.7418 43.56C19.3518 42.56 19.8018 41.43 21.0618 40.2C21.0599 39.344 20.9762 38.4901 20.8118 37.65C19.7874 37.5614 18.7789 37.3395 17.8118 36.99C16.9646 37.6491 16.2803 38.4942 15.8118 39.46L15.5718 39.88C15.6948 40.2673 15.7308 40.6769 15.6773 41.0797C15.6237 41.4824 15.4818 41.8684 15.2618 42.21C15.0338 42.4834 14.7451 42.6999 14.4188 42.8423C14.0924 42.9846 13.7374 43.0489 13.3818 43.03C11.7218 43.03 9.61182 41.85 9.38182 40.32C9.28182 39.69 9.38182 38.55 11.3818 37.79C12.0103 36.58 12.3557 35.243 12.3918 33.88C11.7259 33.2697 11.1168 32.6003 10.5718 31.88C9.29879 31.9578 8.05271 32.2804 6.90182 32.83C6.73182 35.19 5.43182 35.46 4.90182 35.46C3.12182 35.46 0.751822 32.83 0.751822 30.84C0.741994 30.5336 0.802711 30.2291 0.929286 29.95C1.05586 29.6708 1.24491 29.4245 1.48182 29.23C1.92024 28.944 2.41278 28.7511 2.92885 28.6634C3.44492 28.5757 3.97351 28.5949 4.48182 28.72L4.63182 28.63C5.91371 27.983 7.04756 27.0772 7.96182 25.97C7.72323 24.9639 7.56276 23.9408 7.48182 22.91C6.61183 22.0289 5.49057 21.4386 4.27182 21.22C2.61182 22.03 1.27182 21.82 0.51182 20.73C0.15699 20.1429 -0.0201498 19.4656 0.00182206 18.78C0.00182206 16.69 1.19182 14.45 3.00182 14.45C4.00182 14.45 4.85182 15.1 5.66182 16.37C6.75338 16.5245 7.86642 16.3793 8.88182 15.95C9.23593 15.2315 9.64726 14.5426 10.1118 13.89C9.57688 12.5954 8.82999 11.3991 7.90182 10.35C6.94462 10.4734 5.97216 10.3171 5.10182 9.90001C4.81897 9.75251 4.58241 9.52966 4.41828 9.25612C4.25416 8.98258 4.16886 8.66899 4.17182 8.35001C4.17182 6.23001 7.72182 3.55 9.89182 3.55C10.204 3.53667 10.5149 3.59667 10.7997 3.72517C11.0845 3.85368 11.3353 4.04713 11.5318 4.29001C11.7978 4.72649 11.9644 5.21619 12.0197 5.72432C12.075 6.23245 12.0177 6.74653 11.8518 7.23001C12.681 8.14536 13.6375 8.93677 14.6918 9.58C15.5286 8.97916 16.4352 8.48219 17.3918 8.10001C17.439 7.21455 17.3954 6.32658 17.2618 5.45C15.4918 4.62 14.7118 3.65 14.9318 2.55C15.2718 0.880003 18.0418 0 19.9318 0C21.3218 0 22.2818 0.450004 22.6418 1.27C23.0018 2.09 22.6418 3.19001 21.5818 4.46001C21.8607 5.34137 22.3558 6.13892 23.0218 6.78L23.2118 6.98001C24.4316 6.96169 25.6486 7.10289 26.8318 7.40001C27.7465 6.61448 28.5062 5.66482 29.0718 4.60001C28.8047 4.12787 28.6576 3.5973 28.6437 3.05499C28.6297 2.51268 28.7493 1.97526 28.9918 1.49001C29.2533 1.12969 29.6032 0.842839 30.0079 0.657166C30.4125 0.471492 30.8581 0.393262 31.3018 0.430008C33.3718 0.430008 35.9518 1.78 36.1918 3.52C36.3218 4.44 35.8718 5.71 33.0618 6.59C32.662 7.7047 32.4164 8.8688 32.3318 10.05C33.3474 10.829 34.2642 11.729 35.0618 12.73C36.314 12.8149 37.5707 12.6553 38.7618 12.26C39.4218 9.82001 40.5318 9.26001 41.3818 9.26001C43.3818 9.26001 45.0318 12.32 45.0318 14.32C45.0578 14.9186 44.8778 15.508 44.5218 15.99C44.3073 16.241 44.0378 16.4392 43.7344 16.5693C43.4309 16.6993 43.1015 16.7578 42.7718 16.74C42.1181 16.7176 41.4741 16.5752 40.8718 16.32C39.7165 16.8652 38.7237 17.7029 37.9918 18.75C38.3396 20.3932 38.414 22.0826 38.2118 23.75C39.0236 24.5218 39.8818 25.2432 40.7818 25.91C42.3218 25.25 43.5818 25.47 44.2618 26.43C44.606 26.9734 44.7801 27.6071 44.7618 28.25C44.7618 30.2 43.5718 32.38 41.8618 32.38C40.9218 32.38 40.0518 31.74 39.2918 30.48C38.2285 30.2482 37.1368 30.1741 36.0518 30.26C35.3269 31.5111 34.4317 32.6553 33.3918 33.66C33.6668 34.6173 34.1873 35.4861 34.9018 36.18C35.3211 36.1045 35.7459 36.0644 36.1718 36.06C38.6118 36.06 38.8018 37.71 38.8018 38.21C38.8018 40.21 36.3418 43.21 34.2118 43.21C33.3318 43.21 31.8818 42.73 31.7918 39.56C30.9063 38.4749 29.8366 37.5541 28.6318 36.84C27.7539 37.1891 26.8425 37.4471 25.9118 37.61C25.7318 38.5 25.5818 39.44 25.4418 40.37C26.8818 41.77 26.9018 42.86 26.6518 43.53C26.1518 44.79 24.4418 45.25 23.1318 45.25ZM17.6918 35.41C17.7745 35.3948 17.8592 35.3948 17.9418 35.41C19.0622 35.8412 20.2432 36.0942 21.4418 36.16C21.5891 36.1681 21.7307 36.22 21.8483 36.3091C21.9659 36.3981 22.0542 36.5204 22.1018 36.66C22.4365 37.8503 22.5915 39.0839 22.5618 40.32V40.45C22.5655 40.5591 22.545 40.6677 22.5018 40.768C22.4586 40.8683 22.3937 40.9578 22.3118 41.03C21.2618 42.03 21.0118 42.66 21.1318 42.98C21.2518 43.3 22.1318 43.71 23.1318 43.71C24.2618 43.71 25.1318 43.31 25.2318 42.93C25.3318 42.55 24.9718 41.88 24.1318 41.14C24.0386 41.0554 23.9679 40.949 23.926 40.8303C23.8841 40.7116 23.8724 40.5843 23.8918 40.46V40.26C24.0718 39.07 24.2618 37.85 24.5218 36.71C24.5575 36.5644 24.6353 36.4327 24.7456 36.3313C24.856 36.2299 24.9938 36.1633 25.1418 36.14C26.242 35.9859 27.3176 35.6901 28.3418 35.26C28.4421 35.2135 28.5513 35.1894 28.6618 35.1894C28.7724 35.1894 28.8816 35.2135 28.9818 35.26C30.5579 36.1184 31.9454 37.2848 33.0618 38.69C33.1838 38.8241 33.2515 38.9987 33.2518 39.18C33.2518 39.92 33.3418 41.62 34.1718 41.62C34.9695 41.4763 35.6837 41.0371 36.1718 40.39C36.7734 39.7851 37.1658 39.0038 37.2918 38.16C37.2918 37.95 37.2918 37.51 36.1618 37.51C35.7006 37.5201 35.2415 37.577 34.7918 37.68C34.6646 37.7103 34.5316 37.7058 34.4067 37.6671C34.2818 37.6284 34.1696 37.5569 34.0818 37.46C32.9103 36.412 32.1191 35.0054 31.8318 33.46C31.8178 33.3443 31.8314 33.2269 31.8714 33.1175C31.9113 33.008 31.9766 32.9095 32.0618 32.83C33.1833 31.7775 34.1286 30.552 34.8618 29.2C34.9153 29.0964 34.9934 29.0075 35.0893 28.9412C35.1852 28.8749 35.296 28.8333 35.4118 28.82C36.8957 28.6479 38.3982 28.7359 39.8518 29.08C39.9573 29.1011 40.0568 29.1451 40.1432 29.2091C40.2296 29.273 40.3009 29.3553 40.3518 29.45C40.8518 30.34 41.3518 30.88 41.7918 30.88C42.4418 30.88 43.1918 29.48 43.1918 28.25C43.2168 27.9012 43.1367 27.5529 42.9618 27.25C42.8935 27.1572 42.8024 27.0836 42.6973 27.0363C42.5921 26.989 42.4766 26.9696 42.3618 26.98C41.8709 27.011 41.3945 27.1584 40.9718 27.41C40.8495 27.475 40.7112 27.5039 40.5731 27.4933C40.435 27.4827 40.3027 27.433 40.1918 27.35C39.0106 26.4926 37.8881 25.5572 36.8318 24.55C36.7398 24.467 36.6703 24.362 36.6301 24.2448C36.5899 24.1276 36.5801 24.002 36.6018 23.88C36.8577 22.1688 36.7865 20.4246 36.3918 18.74C36.3449 18.5346 36.3808 18.319 36.4918 18.14C37.4532 16.6954 38.8059 15.5542 40.3918 14.85C40.4919 14.8028 40.6012 14.7783 40.7118 14.7783C40.8225 14.7783 40.9318 14.8028 41.0318 14.85C41.5402 15.1028 42.0949 15.2491 42.6618 15.28C43.0818 15.28 43.2018 15.13 43.2418 15.08C43.3797 14.8665 43.443 14.6133 43.4218 14.36C43.4218 12.79 42.0918 10.8 41.2718 10.8C40.9018 10.8 40.3818 11.39 40.0018 13.05C39.9696 13.1829 39.9026 13.3048 39.8077 13.4032C39.7128 13.5016 39.5934 13.573 39.4618 13.61C38.2363 13.9984 36.9658 14.2269 35.6818 14.29C35.2451 14.2933 34.8092 14.2498 34.3818 14.16C34.2071 14.1207 34.0515 14.0217 33.9418 13.88C33.0863 12.7829 32.0758 11.8161 30.9418 11.01C30.8329 10.9335 30.7465 10.829 30.692 10.7076C30.6374 10.5862 30.6166 10.4523 30.6318 10.32V9.93001C30.7183 8.4567 31.0565 7.00909 31.6318 5.65001C31.6762 5.55413 31.7414 5.46936 31.8227 5.40189C31.9041 5.33442 31.9994 5.28595 32.1018 5.26001C33.9418 4.73001 34.5418 4.11001 34.4918 3.73001C34.3818 2.99001 32.6118 1.94 31.0818 1.94C30.7818 1.94 30.2418 1.94 30.0818 2.31C29.9218 2.68 29.9718 3.38 30.3918 4.31C30.4363 4.40375 30.4594 4.50623 30.4594 4.61C30.4594 4.71377 30.4363 4.81625 30.3918 4.91C29.6991 6.41985 28.6735 7.7532 27.3918 8.81C27.2978 8.89308 27.1845 8.95127 27.0622 8.97922C26.9399 9.00717 26.8126 9.004 26.6918 8.97C25.4125 8.61963 24.0875 8.46456 22.7618 8.51001C22.6484 8.5171 22.5349 8.49723 22.4306 8.45204C22.3263 8.40685 22.2342 8.33762 22.1618 8.25C22.0318 8.1 21.9018 7.95 21.7618 7.81C20.8387 6.89643 20.1819 5.74869 19.8618 4.49001C19.8276 4.36621 19.8263 4.23566 19.8578 4.11118C19.8894 3.98669 19.9528 3.87255 20.0418 3.78C21.0418 2.68 21.1918 2.08 21.1118 1.89C21.0318 1.7 20.6418 1.52 19.7818 1.52C18.0318 1.52 16.3918 2.35001 16.2818 2.87001C16.2818 3.07001 16.5718 3.6 18.0918 4.25C18.1991 4.29706 18.2939 4.36861 18.3686 4.45891C18.4433 4.54921 18.4957 4.65576 18.5218 4.77C18.7577 5.9275 18.8417 7.1108 18.7718 8.29001V8.66C18.7704 8.81671 18.7193 8.96893 18.6259 9.09473C18.5324 9.22053 18.4015 9.31342 18.2518 9.36C17.0773 9.75396 15.9709 10.3274 14.9718 11.06C14.854 11.1358 14.7169 11.1761 14.5768 11.1761C14.4367 11.1761 14.2996 11.1358 14.1818 11.06C12.7149 10.2274 11.4052 9.14436 10.3118 7.86C10.2346 7.77071 10.1806 7.66381 10.1544 7.54872C10.1283 7.43363 10.1308 7.31388 10.1618 7.2C10.5318 5.74 10.2818 5.27001 10.1618 5.15001C10.0418 5.03001 10.0418 5 9.71182 5C8.14182 5 5.49182 7.25 5.49182 8.3C5.49182 8.37 5.49182 8.45 5.67182 8.56C6.14469 8.7619 6.65903 8.84762 7.17182 8.81H7.96182C8.07164 8.80285 8.18174 8.81874 8.28506 8.85663C8.38838 8.89451 8.48265 8.95356 8.56182 9.03C9.86433 10.3588 10.8907 11.9324 11.5818 13.66C11.6326 13.7805 11.6511 13.9122 11.6353 14.042C11.6195 14.1718 11.57 14.2952 11.4918 14.4C10.9283 15.1361 10.4455 15.9307 10.0518 16.77C9.98912 16.9031 9.88815 17.0145 9.76182 17.09C8.31564 17.8366 6.66279 18.0827 5.06182 17.79C4.94439 17.7776 4.83156 17.7376 4.73251 17.6733C4.63346 17.609 4.55099 17.5222 4.49182 17.42C3.70182 16.06 3.13182 15.91 2.92182 15.91C2.22182 15.91 1.46182 17.39 1.46182 18.74C1.44043 19.1304 1.53061 19.5189 1.72182 19.86C1.79146 19.9668 1.88856 20.0528 2.00293 20.1091C2.1173 20.1655 2.24473 20.1899 2.37182 20.18C2.87532 20.1434 3.36251 19.9856 3.79182 19.72C3.95517 19.6357 4.14377 19.6144 4.32182 19.66C6.0417 19.9289 7.61284 20.7923 8.76182 22.1C8.85998 22.2224 8.91609 22.3732 8.92182 22.53C8.99412 23.6607 9.17155 24.7822 9.45182 25.88C9.47717 25.9777 9.48226 26.0796 9.46678 26.1793C9.45131 26.2791 9.41559 26.3746 9.36182 26.46C8.33245 27.9113 6.95771 29.0832 5.36182 29.87L4.99182 30.1C4.83917 30.1931 4.65831 30.2285 4.48182 30.2C4.15138 30.1437 3.817 30.1137 3.48182 30.11C3.11013 30.0668 2.73505 30.1553 2.42182 30.36C2.35541 30.4107 2.30373 30.4782 2.27209 30.5556C2.24045 30.6329 2.23 30.7173 2.24182 30.8C2.24182 32.06 3.98182 33.92 4.89182 33.92C5.42182 33.92 5.46182 32.56 5.46182 32.28C5.46325 32.1353 5.50649 31.9942 5.58634 31.8735C5.66618 31.7529 5.77922 31.6579 5.91182 31.6L6.02182 31.55C7.57705 30.7766 9.28518 30.3599 11.0218 30.33C11.1434 30.3291 11.2633 30.3578 11.3713 30.4135C11.4793 30.4693 11.5721 30.5504 11.6418 30.65C12.2295 31.5089 12.9214 32.2915 13.7018 32.98C13.7798 33.0496 13.843 33.1341 13.8877 33.2286C13.9323 33.3231 13.9575 33.4256 13.9618 33.53C13.9723 35.3558 13.5034 37.1523 12.6018 38.74C12.558 38.8269 12.4975 38.9043 12.4237 38.9678C12.3499 39.0313 12.2643 39.0797 12.1718 39.11C11.3118 39.39 10.7918 39.77 10.8418 40.11C10.9418 40.71 12.2718 41.56 13.3818 41.56C13.5049 41.571 13.629 41.5562 13.746 41.5166C13.8631 41.477 13.9707 41.4135 14.0618 41.33C14.1523 41.12 14.199 40.8937 14.199 40.665C14.199 40.4363 14.1523 40.21 14.0618 40C14.0321 39.9 14.0239 39.7948 14.0377 39.6914C14.0515 39.588 14.0869 39.4887 14.1418 39.4L14.5218 38.75C15.1537 37.4527 16.1246 36.3504 17.3318 35.56C17.4357 35.4778 17.5603 35.4259 17.6918 35.41Z" fill="white"/>
<path d="M26.9618 30.6601C26.2194 30.6754 25.4899 30.4646 24.8701 30.0556C24.2503 29.6466 23.7696 29.0587 23.4918 28.3701C22.6518 26.3701 23.6118 24.3701 25.8618 23.4401C26.4942 23.1692 27.1739 23.0264 27.8618 23.0201C28.5592 22.9992 29.246 23.1946 29.8278 23.5796C30.4097 23.9645 30.8582 24.5201 31.1118 25.1701C31.3139 25.6549 31.4143 26.176 31.407 26.7012C31.3996 27.2264 31.2846 27.7445 31.069 28.2234C30.8534 28.7024 30.5419 29.132 30.1536 29.4858C29.7654 29.8395 29.3087 30.1098 28.8118 30.2801C28.2278 30.5325 27.5981 30.6619 26.9618 30.6601ZM27.8218 24.5201C27.349 24.5303 26.883 24.6357 26.4518 24.8301C25.2918 25.3201 24.2718 26.3501 24.8718 27.8301C25.0377 28.2452 25.3272 28.5992 25.701 28.8443C26.0749 29.0893 26.515 29.2135 26.9618 29.2001C27.385 29.1956 27.8031 29.1072 28.1918 28.9401C28.5052 28.8434 28.7951 28.6828 29.0432 28.4684C29.2913 28.2539 29.4922 27.9903 29.6331 27.6943C29.7741 27.3982 29.8521 27.0761 29.8622 26.7483C29.8723 26.4206 29.8143 26.0943 29.6918 25.7901C29.5525 25.4107 29.2964 25.0852 28.9603 24.8606C28.6243 24.636 28.2257 24.5238 27.8218 24.5401V24.5201Z" fill="white"/>
<path d="M16.9918 26.32C16.6517 26.3154 16.3144 26.2581 15.9918 26.15C15.5618 26.0176 15.163 25.7996 14.8193 25.5092C14.4756 25.2188 14.1942 24.8619 13.9918 24.46C13.8232 24.1116 13.7266 23.7328 13.7077 23.3462C13.6888 22.9596 13.748 22.5732 13.8818 22.21C14.1112 21.6115 14.5262 21.1021 15.066 20.7566C15.6059 20.4111 16.2423 20.2476 16.8818 20.29C17.3382 20.2908 17.7913 20.3686 18.2218 20.52C18.5987 20.6418 18.9466 20.8395 19.2442 21.1009C19.5417 21.3624 19.7825 21.682 19.9518 22.04C20.292 22.7689 20.3315 23.6023 20.0618 24.36C19.8022 24.9543 19.3716 25.458 18.825 25.807C18.2783 26.156 17.6402 26.3346 16.9918 26.32ZM16.8618 21.79C16.5336 21.7651 16.2055 21.8395 15.9201 22.0036C15.6348 22.1677 15.4054 22.4138 15.2618 22.71C15.195 22.8854 15.165 23.0727 15.1736 23.2602C15.1822 23.4477 15.2293 23.6315 15.3118 23.8C15.5526 24.2457 15.9582 24.5794 16.4418 24.73C16.6188 24.7906 16.8047 24.821 16.9918 24.82C17.3315 24.824 17.6654 24.7324 17.9554 24.5555C18.2454 24.3787 18.4798 24.1238 18.6318 23.82C18.7629 23.4402 18.7414 23.0243 18.5718 22.66C18.4887 22.4837 18.3705 22.3262 18.2243 22.1972C18.0781 22.0682 17.9071 21.9705 17.7218 21.91C17.4431 21.8259 17.153 21.7854 16.8618 21.79Z" fill="white"/>
<path d="M24.8718 20.22C24.4161 20.2345 23.9621 20.159 23.5355 19.998C23.109 19.8369 22.7184 19.5935 22.3859 19.2815C21.7146 18.6513 21.321 17.7803 21.2918 16.86C21.2774 16.4043 21.3528 15.9503 21.5139 15.5237C21.6749 15.0972 21.9184 14.7066 22.2304 14.3742C22.8605 13.7028 23.7315 13.3092 24.6518 13.28C25.122 13.2152 25.6004 13.2438 26.0595 13.3641C26.5187 13.4843 26.9496 13.694 27.3276 13.981C27.7057 14.268 28.0234 14.6267 28.2626 15.0367C28.5019 15.4466 28.6579 15.8997 28.7218 16.37C28.7623 16.8006 28.7158 17.2349 28.5853 17.6471C28.4547 18.0594 28.2427 18.4412 27.9618 18.77C27.2913 19.5806 26.3284 20.0943 25.2818 20.2L24.8718 20.22ZM25.0318 14.76H24.7818C24.5002 14.7507 24.2197 14.8009 23.9588 14.9075C23.6979 15.0141 23.4625 15.1747 23.268 15.3786C23.0735 15.5826 22.9243 15.8253 22.8302 16.0909C22.736 16.3566 22.6991 16.6391 22.7218 16.92C22.7751 17.4402 23.0299 17.9189 23.4318 18.2535C23.8336 18.5881 24.3506 18.752 24.8718 18.71H25.1418C25.4629 18.6843 25.7754 18.594 26.0607 18.4445C26.3459 18.295 26.598 18.0894 26.8018 17.84C27.1064 17.4817 27.2605 17.0194 27.2318 16.55C27.1574 16.0297 26.8897 15.5565 26.4819 15.2247C26.0742 14.893 25.5564 14.7271 25.0318 14.76Z" fill="white"/>
</svg>
