<svg width="45" height="51" viewBox="0 0 45 51" fill="none" xmlns="http://www.w3.org/2000/svg">
<g clip-path="url(#clip0_711_121)">
<path d="M27.4093 45.7581C34.772 45.7581 44.5853 36.7054 44.596 25.5211" stroke="white" stroke-width="1.5" stroke-linecap="round" stroke-linejoin="round"/>
<path d="M17.5907 45.7581C10.2334 45.7581 0.414703 36.7054 0.403931 25.5211" stroke="white" stroke-width="1.5" stroke-linecap="round" stroke-linejoin="round"/>
<path d="M10.8743 43.6444V46.68C10.8612 47.1003 10.9895 47.5152 11.2447 47.8777C11.4998 48.2402 11.8716 48.5357 12.3177 48.7306C13.9712 49.3872 17.1651 50.2551 22.5027 50.2551" stroke="white" stroke-width="1.5" stroke-linecap="round" stroke-linejoin="round"/>
<path d="M34.1257 43.6444V46.68C34.1388 47.1003 34.0104 47.5152 33.7553 47.8777C33.5001 48.2402 33.1284 48.5357 32.6822 48.7306C31.0287 49.3872 27.8348 50.2551 22.5027 50.2551" stroke="white" stroke-width="1.5" stroke-linecap="round" stroke-linejoin="round"/>
<path d="M21.6463 21.0239C13.2388 21.1498 6.56555 23.1061 6.56555 25.521C6.56555 28.0034 13.7074 30.0181 22.5189 30.0181C25.8327 30.0461 29.1374 29.7228 32.3537 29.0558" stroke="white" stroke-width="1.5" stroke-linecap="round" stroke-linejoin="round"/>
<path d="M32.3375 29.0603C36.0539 28.2373 38.4506 26.9601 38.4506 25.5256C38.4506 24.3383 36.8348 23.277 34.1418 22.463" stroke="white" stroke-width="1.5" stroke-linecap="round" stroke-linejoin="round"/>
<path d="M21.6463 21.024L23.9676 16.5269" stroke="white" stroke-width="1.5" stroke-linecap="round" stroke-linejoin="round"/>
<path d="M34.1472 22.463L32.3375 29.0603" stroke="white" stroke-width="1.5" stroke-linecap="round" stroke-linejoin="round"/>
<path d="M21.6463 21.0239C19.3411 25.4716 17.2513 29.528 17.2513 29.528" stroke="white" stroke-width="1.5" stroke-linecap="round" stroke-linejoin="round"/>
<path d="M34.1472 22.463C34.5296 21.0554 34.9336 19.5849 35.3106 18.2087" stroke="white" stroke-width="1.5" stroke-linecap="round" stroke-linejoin="round"/>
<path d="M35.3106 18.2087C36.0162 15.6364 36.6247 13.4193 36.824 12.6773C37.4057 10.5546 36.1239 8.12173 33.544 7.35722C30.9641 6.59272 28.7774 7.65856 27.4847 9.91611C27.0269 10.7166 25.6104 13.4148 23.9677 16.5628" stroke="white" stroke-width="1.5" stroke-linecap="round" stroke-linejoin="round"/>
<path d="M13.4111 17.3364C12.5063 17.5043 11.6356 17.6962 10.799 17.912" stroke="white" stroke-width="1.5" stroke-linecap="round" stroke-linejoin="round"/>
<path d="M13.4111 17.3363C16.4012 16.7924 19.4532 16.5209 22.5135 16.5268C23.009 16.5268 23.4937 16.5269 23.9785 16.5538" stroke="white" stroke-width="1.5" stroke-linecap="round" stroke-linejoin="round"/>
<path d="M10.7989 17.912C4.57274 19.4995 0.414734 22.3102 0.414734 25.5256C0.414734 30.4724 10.3034 34.5198 22.4973 34.5198C34.6912 34.5198 44.5799 30.4724 44.5799 25.5256C44.5799 22.5081 40.912 19.8413 35.3052 18.2088" stroke="white" stroke-width="1.5" stroke-linecap="round" stroke-linejoin="round"/>
<path d="M10.799 17.9119C8.71459 17.6331 5.81155 16.8911 4.01263 14.9214C0.96954 11.5845 2.27296 5.9991 2.27296 5.9991C2.27296 5.9991 6.26393 5.89121 9.42012 7.55514" stroke="white" stroke-width="1.5" stroke-linecap="round" stroke-linejoin="round"/>
<path d="M13.0988 11.9533C12.8071 10.944 12.278 9.99318 11.5422 9.15612C10.9555 8.52054 10.2367 7.97828 9.4201 7.55518" stroke="white" stroke-width="1.5" stroke-linecap="round" stroke-linejoin="round"/>
<path d="M18.447 11.9533C19.1695 10.4872 19.422 8.88919 19.1796 7.3168C18.3663 3.03555 12.8725 0.33728 12.8725 0.33728C12.8725 0.33728 9.51705 3.75958 9.4201 7.53265" stroke="white" stroke-width="1.5" stroke-linecap="round" stroke-linejoin="round"/>
</g>
<defs>
<clipPath id="clip0_711_121">
<rect width="45" height="50.5925" fill="white"/>
</clipPath>
</defs>
</svg>
